<svg width="1720" height="1719" xmlns="http://www.w3.org/2000/svg" xmlns:xlink="http://www.w3.org/1999/xlink" xml:space="preserve" overflow="hidden"><g transform="translate(-55 -94)"><path d="M58.4999 953.5C58.4999 480.744 441.968 97.5001 915 97.5001 1388.03 97.5001 1771.5 480.744 1771.5 953.5 1771.5 1426.26 1388.03 1809.5 915 1809.5 441.968 1809.5 58.4999 1426.26 58.4999 953.5Z" stroke="#042433" stroke-width="6.875" stroke-miterlimit="8" fill="none" fill-rule="evenodd"/><path d="M586.5 945.5C586.5 768.217 730.217 624.5 907.5 624.5 1084.78 624.5 1228.5 768.217 1228.5 945.5 1228.5 1122.78 1084.78 1266.5 907.5 1266.5 730.217 1266.5 586.5 1122.78 586.5 945.5Z" stroke="#042433" stroke-width="6.875" stroke-miterlimit="8" fill="none" fill-rule="evenodd"/><path d="M778.5 953.5C778.5 877.837 839.613 816.5 915 816.5 990.387 816.5 1051.5 877.837 1051.5 953.5 1051.5 1029.16 990.387 1090.5 915 1090.5 839.613 1090.5 778.5 1029.16 778.5 953.5Z" stroke="#042433" stroke-width="6.875" stroke-miterlimit="8" fill="#156082" fill-rule="evenodd"/><path d="M494.685 204.934C870.494 173.782 1201.48 440.694 1233.96 801.097 1237.06 835.486 1237.32 870.056 1234.74 904.484" stroke="#156082" stroke-width="6.875" stroke-miterlimit="8" stroke-dasharray="27.5 20.625" fill="none" fill-rule="evenodd"/></g></svg>